<svg xmlns="http://www.w3.org/2000/svg" version="1" viewBox="0 0 8018 2001"><path d="M4643.1 2.2L4601.7 110l-64.5 168a33425.5 33425.5 0 0 0-73.2 191.4c0 .4 19 .6 42.3.6h42.3l8.8-24.8 26.5-74.7 8.9-25 93.5-.3 93.5-.2 1 2.7c1.6 4 43.2 121.4 43.2 121.9 0 .2 19.9.4 44.1.4 41.5 0 44.1-.1 43.7-1.8-.3-.9-17.4-45.6-38.1-99.2l-128-332.3L4731.6 0H4644l-.9 2.2zm49.1 90.8l15.3 44 37.4 107.5A2721 2721 0 0 0 4758 282c0 .6-26.8 1-71.5 1H4615l2-5.3 21.6-61.2 32.1-91.5a6635 6635 0 0 0 14-39.8c.8-2.4 2-4.1 2.6-3.9.5.1 2.8 5.5 4.9 11.7zM5522 235v235h75V365.7c0-112.4.1-113.8 5.3-129.2a79.8 79.8 0 0 1 51.2-53.1c7.5-2.6 9.1-2.8 25.5-2.8 15.6-.1 18.3.2 25 2.2a50.2 50.2 0 0 1 34.9 33.8c6.6 18.3 6.5 15.1 6.9 140.1l.3 113.3h75l-.4-126.8c-.4-138.6-.1-132-6.3-152.2a93.6 93.6 0 0 0-63.2-63 146 146 0 0 0-37.9-7.1c-31.8-2.4-59 4.4-83.9 21.1a129.3 129.3 0 0 0-31.6 32c-.5 0-.8-39.2-.8-87V0h-75v235zm376-199.5V71h75V0h-75v35.5zM2820 14.6a169.5 169.5 0 0 0-130.9 92.1 167.4 167.4 0 0 0 28.8 190.6 166.1 166.1 0 0 0 87.6 48.7c7.9 1.7 8 1.7 4 2.4a241 241 0 0 0-16 4.1 167.6 167.6 0 0 0-119.6 132.1c-2.5 14-3 40-1 52.9A168.4 168.4 0 0 0 2805 678.1l4.5 1.1-8.1 2.3A168 168 0 0 0 2683.6 880a168 168 0 0 0 111.5 122.5c5.7 1.9 9.7 3.6 8.9 3.9l-8.5 2.7a168.2 168.2 0 0 0-93 244.4 169.5 169.5 0 0 0 108.5 78.9l10.5 2.3-6 1.2a171.7 171.7 0 0 0-104.8 67.2 207.7 207.7 0 0 0-23.6 47.4 167.6 167.6 0 0 0 20.8 143.6 169 169 0 0 0 104.5 70.8l9.1 1.8-6 1.3a174.6 174.6 0 0 0-66.7 29 195.9 195.9 0 0 0-38.1 38 217.4 217.4 0 0 0-22.5 44 174 174 0 0 0-4.6 91 167.4 167.4 0 0 0 62.9 97.1 168.5 168.5 0 0 0 163.4 21.7c20.1-8 37.5-19.5 54.6-36l11.1-10.7 6.4 5.5c7.9 6.7 25.1 18.4 33.1 22.4 13.3 6.7 28.5 12 43.8 15.1 14 2.9 42.1 3.7 56.7 1.5 34-5 65.3-20 90.5-43.4l8-7.5 5.2 5a169.4 169.4 0 0 0 97.1 46.4 224 224 0 0 0 53.3-2 175 175 0 0 0 87.6-47.8l4.8-4.9 7.8 7.7a168.7 168.7 0 0 0 93.9 46.4c16.2 2.3 43.1 1.6 57.4-1.4a168.6 168.6 0 0 0 131.3-132.5 167.8 167.8 0 0 0-281.1-153.3l-9.4 8.9-10-9.5a170.2 170.2 0 0 0-81.1-42.7 168 168 0 0 0-150.6 43.3l-6.2 6-7.3-6.9a167.3 167.3 0 0 0-86.4-43.5c-16.6-3-41.2-3-57.8 0a170.3 170.3 0 0 0-91.9 49c-3.8 3.9-7 7.1-7.2 7.1-.2 0-3.2-2.5-6.7-5.5a179.5 179.5 0 0 0-49.5-29.5c-6.3-2.4-19.1-6-30.8-8.6-2.5-.5-1.7-.9 5.8-2.5a169 169 0 0 0 129.7-130.4c1.6-7.4 2.3-15 2.7-29 .5-16.6.2-20.7-1.7-32a166 166 0 0 0-71.8-111.9 176.4 176.4 0 0 0-62.1-25.7l-6.4-1.2 9.4-1.9c13.8-2.8 25.8-7 40.4-14.3a167.5 167.5 0 0 0 89.7-116.5c2-9.2 2.2-13.3 2.2-33.5 0-20.1-.2-24.2-2.2-33-5-22.6-12.9-41.4-24.6-59-23.6-35.2-52.5-56.2-96.6-70.2-.8-.3 3.1-2 8.8-3.9a169.1 169.1 0 0 0 60.2-35.1l8.4-8 7.1 6a173 173 0 0 0 76.5 36.8c8.8 1.9 13.8 2.3 31 2.3 17.6.1 22.1-.2 31.9-2.2a168.3 168.3 0 0 0 84.7-43.5l7.1-6.6 5.4 5.5a167.5 167.5 0 0 0 240.3-6.8c1.6-2.2 1.6-2.2 9.9 5.8 10.3 10.1 16 14.7 26.7 21.7a169.3 169.3 0 0 0 161.5 11.3 168.2 168.2 0 0 0-77.5-320.3 166 166 0 0 0-110.2 47.5l-8.8 8.5-5.7-6c-7.9-8-17-15.5-27.8-22.6a166.9 166.9 0 0 0-208.9 20.1l-4.9 5-10.1-8.9a168 168 0 0 0-159.1-37.3 169 169 0 0 0-68.2 38.8l-7 6.6-1.9-2.1a168.8 168.8 0 0 0-71.9-38.5l-10.6-2.7 12.8-4.2a164.2 164.2 0 0 0 67.4-41.5 163 163 0 0 0 47.9-98.2c1.7-14.2.8-40.1-1.9-53a168.8 168.8 0 0 0-132.6-131.9l-6-1.2 10.5-2.3c15.5-3.5 22.1-5.9 37.5-13.5A152 152 0 0 0 2958 300a164.6 164.6 0 0 0 48.1-98.3 214 214 0 0 0-2.1-53.2 167.4 167.4 0 0 0-72-106.8 158.6 158.6 0 0 0-59.5-24.7c-7.8-1.7-14.3-2.2-29.5-2.5-10.7-.2-21.1-.1-23 .1zm3253.8 64.1l-.3 50.8-28.2.3-28.3.2v56h57v104.9c0 88.4.2 106.9 1.5 116.8 2.9 22.5 7.6 34.4 17.5 44.3 6 6 17.7 12.7 27 15.4 21.1 6.3 57.3 7 92.8 2l4.2-.6v-29c0-26.9-.1-29-1.7-28.4-.9.4-7.7 1.2-15.1 1.8-23.8 2.1-39-1.4-44.9-10.3-6-9.1-5.8-4-6.1-115.1l-.3-101.8 33.8-.2 33.8-.3.3-27.8.2-27.7h-68V28h-75l-.2 50.7zm940.2.3v51h-56v56h56v99.4c0 102.3.4 116.8 4.1 135.1 6.3 31.7 27.3 47.6 68 51.4a280 280 0 0 0 66.2-2.5l4.7-.6v-29c0-26.7-.1-29-1.7-28.4-.9.4-6.4 1.2-12.2 1.8-12.3 1.2-27.5.5-34.6-1.6a26.1 26.1 0 0 1-14.2-10.9c-4.7-9-4.6-8.2-5-114.5l-.4-100.2h68.1v-56l-33.7-.2-33.8-.3-.3-50.8-.2-50.7h-75v51zm-1910 42c-23 2.9-45.6 14.6-64 33a108.6 108.6 0 0 0-25 39.5c-.5 1.3-.9-10.2-.9-30.8l-.1-32.7h-71l.2 169.7.3 169.8 37.2.3 37.2.2.4-90.7c.3-98.8.2-97.2 6.2-117.8 8.1-27.8 25.1-49.8 46.8-60.5 14.2-7 23.2-9.1 38.7-9.2 10.8-.1 22.6 1 30.8 2.8l2.2.4v-72.7l-5.2-.6a187.4 187.4 0 0 0-33.8-.7zm188.5.1c-50.5 3.9-91.7 27.2-118.2 66.9a199.4 199.4 0 0 0-29.4 84.5c-2 15-1.7 49.5.5 63.5 9.3 60.5 37.6 102.4 85.1 125.9a152.4 152.4 0 0 0 62.7 16.3c25.2 1.9 53-1 73.4-7.8 42.7-14.2 72.5-44.8 88.2-90.4a228 228 0 0 0 8.7-33.8l.7-4.2h-75l-1.2 6.7c-6.6 35.5-28 60.5-58.5 68.4-10.5 2.8-30.6 3-41.5.4-32.8-7.5-57.4-36.4-65.8-77-6-28.9-5-65.3 2.4-91.3a139.5 139.5 0 0 1 18.6-37.7 80.3 80.3 0 0 1 69.3-31c14.8 0 18 .3 24.9 2.3a68 68 0 0 1 49.8 51.4l2.1 8.8h37.4c33.1 0 37.3-.2 37.3-1.6 0-3.3-2.3-16.3-4.1-23.7a121 121 0 0 0-12.7-31.1c-23-38.6-64.9-61.4-120.7-65.6a168 168 0 0 0-34 .1zm1106.5 0a149.6 149.6 0 0 0-73.2 25.8 167.8 167.8 0 0 0-64.6 87.6 197.6 197.6 0 0 0-10.2 66.4c0 76 30.4 132.7 86.4 160.8 45.2 22.7 111.8 22.7 157.1.1a141.7 141.7 0 0 0 76-95.6l.7-3.2-35.6.2-35.7.3-3.3 7.8a75.3 75.3 0 0 1-49.7 44.7c-17 4.7-40.8 4.7-57.9-.1-35.9-9.9-59.8-43.1-62.7-87.2l-.6-9.7h250l.7-6.1c.3-3.4.6-12 .6-19 0-83.4-52.4-153.8-126.4-169.8-9.8-2.1-29.2-4.2-37.6-3.9-2.5 0-8.8.4-14 .9zm34.3 60.5a86.4 86.4 0 0 1 61.2 58.6c3.3 9.9 6.8 27.3 5.8 29-.2.5-39.6.8-87.5.8h-87.1l.6-7.3a105 105 0 0 1 19.1-49.4 84.8 84.8 0 0 1 50.6-31.8c9.3-1.9 28.6-1.8 37.3.1zm330.1-60.5c-58.9 4.5-104.5 34.3-129.5 84.8-22.2 44.9-27 110-11.9 161.1a150.8 150.8 0 0 0 116 107.9c21.8 4.5 49.2 5.1 72.5 1.6 39.8-6 71.9-25 93.5-55.2a200.5 200.5 0 0 0 22-44.5c2.7-8.4 8-30.9 8-33.8 0-.6-13.2-1-37.4-1h-37.3l-1.3 6.2c-8.1 41.5-33 66.6-70.3 70.8-42.3 4.9-76.7-19-91.6-63.6a159.5 159.5 0 0 1-7.5-54.4c0-32.6 3.6-50.7 14.4-72.6a80.8 80.8 0 0 1 37.5-39.5c13.7-6.7 21.3-8.3 41.5-8.3a73 73 0 0 1 25.4 2.2 68 68 0 0 1 49.8 51.4l2.1 8.8h37.4c35.8 0 37.3-.1 37.3-1.9 0-3.4-3-19.5-5.1-27.1a126 126 0 0 0-36.2-56.9c-24.2-20.9-56.9-33.1-96.2-36.1a159.1 159.1 0 0 0-33.1.1zm557.3-.1c-46.9 3.6-79.9 16.5-101.8 39.8-16.3 17.2-21.9 31.9-21.9 57.5 0 21.8 3.6 35.4 13.4 50.1 17.5 26.3 44.1 39.2 109.6 53.1 48.4 10.3 58.3 13 71.4 19.8a52.4 52.4 0 0 1 22.7 20.9c3.3 7.4 3.4 22.1.2 29.1a44 44 0 0 1-20.8 18.8c-21.1 9.8-57.1 12.4-81.5 5.8-20.3-5.4-35.6-17.2-41.7-32-2.7-6.4-3.7-10-5.9-21.7l-.4-2.2h-37c-20.9 0-37.1.4-37.4.9a127 127 0 0 0 3.8 30.5c10.5 41.3 44.7 70.9 94.7 81.9 18.2 4.1 29 5.1 51.4 5.1 22.1 0 32.3-1 51.8-5 43.7-9.1 76.7-31.4 92.1-62.1 12-24 12-62.3 0-84.2a92.6 92.6 0 0 0-42-39.1c-15.7-8-38.8-14.8-77.5-22.9-33.5-7-36.8-7.8-49.5-11.7-20-6.1-33.4-14.4-39.1-24.1-2.2-3.7-2.8-6.2-3.1-12.9-.4-7.2-.1-8.9 2-13.6 4.3-9.4 15.6-16.6 32.3-20.4 6.4-1.5 11.9-1.9 27-1.9 20.9.1 28.9 1.5 42.1 7.5a47.9 47.9 0 0 1 25.5 31.7l1.3 5.3h78.6l-.4-2.3-2.1-10.6c-8.2-42.9-41.3-74.8-89.2-86a249 249 0 0 0-68.6-5.1zM5898 300v170h75V130h-75v170zm-4057 46.7a172.3 172.3 0 0 0-109.8 57.5 165.8 165.8 0 0 0-40 121.5 166.8 166.8 0 0 0 92 138.4 169 169 0 0 0 146.8 1.8 178 178 0 0 0 41.7-28.3l8.8-8.4 6.5 6c41.1 37.5 91.8 53.1 144.5 44.3a165.6 165.6 0 0 0 87.7-44.4l9.8-9.3 10.4 10c44.4 42.8 109 57 168.7 37.2a168.9 168.9 0 0 0 111.6-127.5c2.8-13.9 2.5-51.2-.5-65a169.3 169.3 0 0 0-24.6-59 158.2 158.2 0 0 0-46.6-47 163.5 163.5 0 0 0-87.5-28.2 166.1 166.1 0 0 0-125.3 49.5l-6.3 6.3-10.3-9.9a165.6 165.6 0 0 0-122.5-45.9 166.8 166.8 0 0 0-101.6 39.9 236 236 0 0 0-11.2 10l-2.3 2.4-5.7-5.4a214.2 214.2 0 0 0-28.8-22.2 187.2 187.2 0 0 0-51-21 209.6 209.6 0 0 0-54.5-3.3zm-1448.5 7.4A168.3 168.3 0 0 0 247 479.4a175 175 0 0 0 2.6 92.8 168.1 168.1 0 0 0 274.5 71.9l7.6-7 3.4 3.5c5.8 6.1 18 15.9 26.9 21.6a161.7 161.7 0 0 0 84.8 26.5 162 162 0 0 0 119.4-43.6l8.2-7.8 9.5 8.5a172.8 172.8 0 0 0 79.6 40.2c13 2.7 38.2 3.7 52.5 2.1a172.3 172.3 0 0 0 79.5-31 203.5 203.5 0 0 0 37.5-37.8c16.1-22.9 26.5-49 30-75.2 1.8-13.5 1.4-37.8-.9-51.3a170 170 0 0 0-53.8-97.1 168.6 168.6 0 0 0-173.7-30.6 170.7 170.7 0 0 0-52.8 33.7l-6.7 6.4-7.8-7.1c-12-11-24.5-19.5-39.8-27a151.9 151.9 0 0 0-61.3-17.2c-45.5-4-89.8 11.2-126.2 43.2l-8.6 7.6-9-7.9a168.5 168.5 0 0 0-129.9-42.7zm1211.3 324a167.3 167.3 0 0 0-142.9 136.5c-3 16.6-3 41.2 0 57.8a167 167 0 0 0 127.7 133.6c.8 0 1.4.4 1.4 1 0 .5-.8 1-1.8 1-3.5 0-24.7 7.2-33.7 11.4A166.9 166.9 0 0 0 1584 1332c6.3 1.5 6.9 1.1-10.1 6.4a166 166 0 0 0-114.9 171.4c6.3 73.2 55.7 130.8 128 149.3l4.5 1.1-9.1 2.4a172.5 172.5 0 0 0-67.8 36.2 167.7 167.7 0 0 0-48.1 176.8 223.9 223.9 0 0 0 23.2 45.4 198.5 198.5 0 0 0 38.3 38.3c18 12.8 41.3 22.9 64.3 27.9 8.9 2 13.1 2.2 32.7 2.2a130 130 0 0 0 32.7-2.2c37.5-8.1 71-27.8 94.2-55.5 19.2-23 32.1-50.3 37.2-79.3 2.8-15.7 3-39.4.5-54.9-10.5-65-59-118.6-122-134.9l-9.1-2.4 4.5-1.1c12-3 25.6-8.1 37-13.8a166.4 166.4 0 0 0-35-310.4l-4.5-1.2 3.5-1c28.7-8 51.2-19.8 71.8-37.7 38-33.2 59.6-86.7 55.2-137a154.2 154.2 0 0 0-17-61.5 162.1 162.1 0 0 0-76.5-76c-10.4-5-31.7-12.5-35.7-12.5-3.8 0-1.5-1.7 4-3a166.9 166.9 0 0 0 123.3-132.6c3-16.6 3-41.2 0-57.8-12.1-67.9-63-120-131.7-134.6a240.4 240.4 0 0 0-53.6-1.9zm-483.3 2a168.2 168.2 0 0 0-150.4 132.5 167.3 167.3 0 0 0 48.5 156.3 171.9 171.9 0 0 0 77.4 42.2l4.5 1.1-8.5 2.5a166.7 166.7 0 0 0-69.2 39.1l-6.7 6.5-8.3-7.3a174.6 174.6 0 0 0-68.5-36.5 168.4 168.4 0 0 0-162.5 44.7c-1.8 2-1.9 1.9-9.8-5.4a168 168 0 0 0-186.3-28.4c-14.8 7.1-36 21.9-45.6 31.9l-3.3 3.5-9.7-8.5a168 168 0 0 0-277.2 91.7c-2 9.2-2.3 13.4-2.3 33s.3 23.8 2.3 33a168.1 168.1 0 0 0 127.6 130.8 168.6 168.6 0 0 0 149.6-39.1l9.7-8.5 3.3 3.5a167 167 0 0 0 125 48 166.3 166.3 0 0 0 108.1-45.5l6.7-6.4 6.3 6a167.8 167.8 0 0 0 136.8 44.8 169.4 169.4 0 0 0 92-42.8l8.5-7.5 9.4 8a179.8 179.8 0 0 0 66.1 35.4c.8.3-3.1 2-8.8 3.9a169 169 0 0 0-112.5 125.9c-1.9 8.8-2.2 12.9-2.1 33.5 0 20.5.3 24.8 2.2 33.7a171 171 0 0 0 40.5 79.6c15.6 17.7 42.8 36 65.7 44.1l9 3.2c.8.3-3.3 2.4-9.5 4.7a173 173 0 0 0-56.6 35.5c-6.5 6.1-9.5 8.3-10.4 7.6l-8-6.6a168 168 0 0 0-141.5-35.2 171.8 171.8 0 0 0-78.5 40.5l-8.5 8.1-7.1-6.7a169 169 0 0 0-86.4-43.1 234 234 0 0 0-53.5-.6 174.7 174.7 0 0 0-90.1 43.9l-6.3 6-9-7.9a167.8 167.8 0 0 0-120.1-43.5A168.4 168.4 0 0 0 244.8 1800c-2 9.2-2.2 13.3-2.2 33 0 19.5.3 23.9 2.3 33a167.8 167.8 0 0 0 256.6 107.6c7.9-5.2 24.2-18.3 27.9-22.4l1.9-2.2 6.5 6.2a167 167 0 0 0 107.2 45.4 166.2 166.2 0 0 0 121.9-44.3l7.7-7.1 7.9 7a168 168 0 0 0 231.3-3l7.4-7.1 7.1 6.1a167.9 167.9 0 0 0 96.9 39.7c43.5 3 83.8-9.6 118.4-37a171.3 171.3 0 0 0 58.2-94.9c2.5-10.7 2.6-13.1 2.6-35.5.1-22.9-.1-24.6-2.8-36a165.7 165.7 0 0 0-45.6-82.5 164.2 164.2 0 0 0-60.3-39c-5.7-2.2-9.5-4.1-8.7-4.4l9-3.2a168.5 168.5 0 0 0 106.2-123.7c3-14 3.3-51.2.5-65.2a169.6 169.6 0 0 0-116-128.9l-7.8-2.3 11.3-3.7c57-18.9 99-65.9 112-125.6 2-9.2 2.3-13.3 2.3-33.5 0-25-.7-30.7-6.5-49.7a168 168 0 0 0-116.4-112.5l-9.7-2.7 9.3-2.9A162.3 162.3 0 0 0 1253 966a153.8 153.8 0 0 0 31.4-43.5 166.7 166.7 0 0 0 14.8-42 130 130 0 0 0 2.2-33c0-20-.3-24.3-2.2-33.2A167.8 167.8 0 0 0 1146.7 680c-6.7-.5-13.1-.9-14.2-.8l-12 .9zM4464 985v235h82l.2-96.8.3-96.7 55.5-.3c63.7-.3 86 .6 100.1 4.2a65.7 65.7 0 0 1 47.9 41.9c6.7 17.1 8.8 32.5 10 71.7.6 17.3 1.5 36 2 41.5a90.6 90.6 0 0 0 8.3 30l2.3 4 44.1.3 44.2.2-4-5.9c-13.4-20.1-19.5-52.9-21.9-118.6-.7-21.3-1.2-26.4-3.3-34.6-6.2-23.9-18.1-42.1-34.6-52.8a95.4 95.4 0 0 0-26.8-10.6c-2.4-.4-4.3-1-4.3-1.3 0-.4 4.8-2.7 10.6-5.1a89.4 89.4 0 0 0 33-22.3 117.3 117.3 0 0 0 32-65.9c2.2-15.3 1.5-45.4-1.4-57.9-11.1-47.6-42-76.7-94.2-88.9-23.3-5.5-21.8-5.4-156.7-5.8l-125.3-.4V985zm242.5-165.7c17.4 3.3 28.3 8.6 37.7 18.5 12.3 12.9 17.7 31.3 16.5 56.6-1 22.5-6.4 36.4-18.7 48.6a66.8 66.8 0 0 1-41.8 19.5c-7.8 1.2-23.8 1.5-81.9 1.5H4546v-72.8c0-40.1.3-73.2.7-73.6.4-.4 34.8-.5 76.3-.3 61.9.4 76.9.7 83.5 2zm957.5-33.8V821h75v-71h-75v35.5zm1515 0V821h75v-71h-75v35.5zM6178 829v51h-57v56h57v105.7c0 110.4.2 115.5 4.4 133.7 6.3 27.1 27.9 42.6 64.8 46.6 17.7 1.9 51.4.7 70.6-2.5l3.2-.6v-28.3c0-15.5-.3-28.5-.6-28.8a134.5 134.5 0 0 1-26.4 1.6c-15.2 0-19.3-.3-22.9-1.7-9.9-3.9-15.1-10.9-17.1-22.8-.6-4.1-1-41.9-1-104.6V936l33.8-.2 33.7-.3.3-27.8.2-27.7h-68V778h-75v51zm806 0v51h-56v56h56v102.2c0 104.3.3 115.8 3.9 133.4 5.5 27.1 22.1 42.2 53 48.5 14.4 3 44.1 3.6 64.6 1.5 8.8-.9 17.2-1.9 18.8-2.2l2.7-.6v-57.6l-3.7.9c-6.7 1.7-31.3 2.3-38.7 1-11.3-2-18.6-7.1-22-15.4-3.2-7.9-3.6-19.7-3.6-115.9V936h68v-56h-68V778h-75v51zm-1950.3 43.5a153.5 153.5 0 0 0-71.2 31.2c-35.1 27.2-58.4 71.1-64.6 121.6-1.6 13-.7 51.9 1.5 64.7 7 40.8 22.4 72 47.1 95.8 30 28.9 68.3 43.2 116.1 43.2 54 0 99.5-20.7 127.9-58.2a137 137 0 0 0 24.1-48.3l2.4-9.3h-35.6l-35.5.3-3.4 7.8a84 84 0 0 1-19.3 27.8 71 71 0 0 1-36.6 18.6 143.9 143.9 0 0 1-48.1-.5c-34.8-8.7-58-35.7-65-75.9a114 114 0 0 1-1.5-15.4v-6.9h249.8l.7-10.8a189.5 189.5 0 0 0-42.9-134.4 169.6 169.6 0 0 0-65.3-44.7 134 134 0 0 0-49.8-7.7c-15.9-.2-24.4.1-30.8 1.1zm48.8 60a87 87 0 0 1 52 43.5 122.7 122.7 0 0 1 11.5 40.5v3.5h-174v-4.5c0-11.8 6.3-31.7 14-44.1a83.5 83.5 0 0 1 55-39.5c10.5-2.3 32.1-2 41.5.6zm304-60a143.7 143.7 0 0 0-57.6 23c-43.7 29.1-69.9 84-69.9 146.2 0 55.3 14.5 101.2 41.7 132.5 7.4 8.5 15.4 15.5 26.7 22.9 21.4 14.2 43.7 21 74.5 22.5a117 117 0 0 0 61.6-12.1 110 110 0 0 0 45.8-40.7c2.3-3.7 4.5-6.7 5-6.8 1.1 0 .8 57.1-.3 67-3.4 30-16.3 51.1-37.4 61.6a93.3 93.3 0 0 1-36.8 9.6c-14.5 1.3-37.6 0-48.8-2.8a64 64 0 0 1-27.1-14.2 52.6 52.6 0 0 1-15.6-24.1l-2.8-8.1h-74.8l.7 5.2c5 39.1 29.8 69.7 69.8 86.2 44.8 18.5 117.5 19 163.8 1.1 51.6-19.9 78.7-58.5 84-119.5.6-7.1 1-75.2 1-176.8V880h-75v23c0 12.6-.3 23-.7 23-.5 0-2.8-3.4-5.3-7.5a100 100 0 0 0-23.3-26.1 123.5 123.5 0 0 0-38.7-17.6 98.2 98.2 0 0 0-31.5-3.4c-14.2-.2-22.6.1-29 1.1zm64 61c31.3 9.2 51.9 34.3 60.6 73.5 7.6 34.6 2.7 79.4-11.8 107.2a85.5 85.5 0 0 1-46.6 41.9c-21.6 7.4-51.2 5.3-68.7-4.8-33.4-19.3-51.8-60.3-49.7-110.8 2.3-54 22.6-91 57.9-105.2a77.6 77.6 0 0 1 34.8-4.9c12.1.3 16 .8 23.5 3.1zm466.9-61c-39.8 5.3-65.6 15.9-85.3 34.9a79.1 79.1 0 0 0-23.3 37.4c-2.8 10.3-3.1 36-.5 46.7 8 32.8 30.1 53.8 70.7 67.2a580 580 0 0 0 66 16.3c42.1 8.9 59.5 15.5 71.1 27.1a32 32 0 0 1 10.2 25.5c0 10-2.9 17.2-9.9 23.9-11 10.7-29.6 16.5-58.3 18.1-25.5 1.4-51.9-5.7-65.5-17.8a60.5 60.5 0 0 1-18-36.1l-.7-4.7h-75.2l.7 8.7a107.5 107.5 0 0 0 62.1 91.5c13.9 7 31.8 12.2 52.5 15.5 16.1 2.5 53.8 2.5 70 0 48.8-7.5 81.8-24.8 102.3-53.9 5.9-8.2 9.9-17 12.8-27.9 3.1-11.4 3.4-39.5.5-50.4-7-26.9-28-48.6-58.8-61a427.8 427.8 0 0 0-64.5-17.5c-56.7-11.8-73.3-17.5-86-29.8a29.2 29.2 0 0 1-7.9-29.6c5.2-17.7 30.9-27.9 66.5-26.3 20.4.9 38.3 6.7 48.2 15.5a56.8 56.8 0 0 1 13.4 23.4l1.6 5.8h78.2l-.7-5.3a118.6 118.6 0 0 0-13-39.1c-17.8-30.4-47.4-49.1-89.6-56.8-14.8-2.7-54-3.4-69.6-1.3zm606.1 0c-33.9 7.5-69.3 37.6-79 67.3-1 2.9-2.1 5.2-2.6 5.2s-.9-14.3-.9-32.5V880h-70v340h74.9l.3-91.3c.4-101.3.3-99.1 7.3-120.4a102.2 102.2 0 0 1 27-44.1 82 82 0 0 1 40-20.7c11.4-2.3 32.8-1.8 46.8 1.1l2.7.6v-72.9l-6.1-.7c-10.2-1-34-.5-40.4.9zm198.5-.8c-44.3 4.4-73.1 15.3-94.9 35.8a106 106 0 0 0-33.3 71.5l-.3 4.5h74.9l1.2-6.9c4.7-25 25.1-41.3 57.2-45.6 11.4-1.6 34.5-.8 45.7 1.5 17 3.4 31.8 13.4 37.1 24.8 7.4 16.2 4.9 34.5-6.1 44.5-9.7 8.9-24.7 13.5-55 16.7-8.2.9-18.8 2.2-23.5 3-4.7.8-16.2 2.6-25.7 3.9-34 5-52.5 9.7-67.5 17.2a85.7 85.7 0 0 0-43.4 44.4 98 98 0 0 0-7.1 37.5c-1.1 31 6.7 52.5 26.2 72 22.6 22.6 56.4 33.8 97 32.2 43.3-1.7 84.6-16.2 106.6-37.4l3.7-3.5 1.7 5.8c5.1 17.8 15.6 27.8 34.5 33 5 1.4 10.2 1.8 22 1.8 15.8.1 21.4-.7 39.3-5.5l7.7-2.1v-51.3h-12.2c-14.9 0-17.8-1.2-21.1-8.3-2.2-4.7-2.2-4.8-2.7-107.2-.5-95.5-.7-102.9-2.4-109-9.7-34.1-38.3-58.2-81.6-68.4-17.3-4.2-32-5.6-54.3-5.4-11.1 0-21.8.3-23.7.5zm86 245.8c-4.3 20.7-24.5 39.7-50.5 47.4-8.6 2.6-25 5.1-33 5.1-30.2-.2-56.9-11.9-65.1-28.7-5.3-10.8-4.1-28.5 2.8-41.5 10.7-20 34.1-28.8 95.8-35.8 10.2-1.1 21.4-2.7 24.9-3.6 7-1.6 18-5.8 22.6-8.6l3-1.8.3 31.3c.1 18.8-.2 33.2-.8 36.2zm650.6-244.9c-35.8 4.8-69.2 21-93.1 45-31.5 31.6-48.5 77.9-48.5 131.8 0 34.6 6 63.1 19 90.3a139.8 139.8 0 0 0 30 42.4c31 31.1 72.2 46.9 122.1 46.9 49.7 0 90.2-15.1 121.3-45a146.9 146.9 0 0 0 27-34.7c21.9-38.8 29.2-93.2 19.5-144.7-7-37.5-26.7-73-52.2-94.4A165.6 165.6 0 0 0 7514 872a331.1 331.1 0 0 0-55.4.6zm54.9 60.4a91.9 91.9 0 0 1 50.4 37.3 137 137 0 0 1 20.5 80.2c0 22.7-1.4 32.4-7.1 50-11 34-35 58.6-64.9 66.6a114.8 114.8 0 0 1-46.7 0 71.6 71.6 0 0 1-26.3-11.7c-23.1-15.2-38.4-41.2-45.1-76.7-2.7-14.5-2.5-45.7.5-60.5 5.5-27.5 15-47 30.4-62.3a84.2 84.2 0 0 1 45.3-24.5c10.4-2 32.7-1.2 43 1.6zm361.7-60.5a123.1 123.1 0 0 0-77.3 49.5c-3.5 4.9-6.6 8.7-7.1 8.4-.4-.3-.8-11.7-.8-25.5V880h-71v340h75v-101.3c0-61.9.4-104.7 1-110.2a97.3 97.3 0 0 1 10-34 76.3 76.3 0 0 1 48.5-41.7c6.8-2 10.3-2.3 23.5-2.3 11.7 0 17.1.4 21.9 1.8 25.6 7 38.8 25.3 43 59.2.7 6.1 1.1 44.9 1.1 118.7V1220h75v-122.4c0-132.9-.1-135.3-5.5-154-11.4-39.5-42-64.3-87.8-71-12.7-1.9-39.2-2-49.5-.1zM5664 1050v170h75V880h-75v170zm1515 0v170h75V880h-75v170z"/><path d="M3797.9 995.5a164.6 164.6 0 0 0-139 140c-1.9 12.5-1.5 37.9.9 51.5a165.2 165.2 0 0 0 126.1 132.5c3.2.7 2.8.9-5.8 3.1a165.4 165.4 0 0 0-118 198.9 169.5 169.5 0 0 0 50.9 84.1 166 166 0 0 0 161.5 32.8 202.6 202.6 0 0 0 43.5-22.1 198.5 198.5 0 0 0 38.3-38.3 206.9 206.9 0 0 0 22.7-44.7c5.8-18.1 7.5-29.7 7.5-51.3a148 148 0 0 0-7.5-51.3 206.9 206.9 0 0 0-22.7-44.7 198 198 0 0 0-38.3-38.2 181.6 181.6 0 0 0-57-26.1l-5.5-1.4 4.5-1.2c25.4-6.7 44.7-16 63.5-30.6a164.3 164.3 0 0 0 40.8-213.4 149.6 149.6 0 0 0-28.2-35.3 164 164 0 0 0-80.8-42.8 225.4 225.4 0 0 0-57.4-1.5zM145 1337.5a164.9 164.9 0 0 0-71.6 27.6 166.2 166.2 0 0 0-73.1 146c3.4 80.5 61.8 145.6 142.7 159.1a235 235 0 0 0 53-.6 167.7 167.7 0 0 0 122-241.1 168.2 168.2 0 0 0-173-91zM4464 1754v235.1l123.3-.4c110-.3 124.4-.5 134.7-2a200.5 200.5 0 0 0 80.1-28.2 137.1 137.1 0 0 0 32.8-33.5c13.3-21.8 19-48.7 17-79.8-3.6-55-31.2-92.4-77.9-105.7a240 240 0 0 1-9.8-3c-.2-.2 3-1.9 7.1-3.9a105.9 105.9 0 0 0 51.7-52.3 91.3 91.3 0 0 0 7.7-40.4c.6-20.8-.9-33.1-6.1-48.2-14.3-41.7-55.4-67.2-115.6-71.7-7.9-.6-61.7-1-129.2-1H4464v235zm226-167c32.5 2.7 49.8 14.9 56.8 40.2a86.9 86.9 0 0 1 1.7 22.8c-.1 15.4-.2 17-2.8 24.3a68.7 68.7 0 0 1-6.1 13 66.6 66.6 0 0 1-36.6 25.8c-7.5 2.3-7.7 2.3-82.2 2.7l-74.8.3v-64.4c0-35.4.3-64.7.7-65 1-1.1 130.5-.8 143.3.3zm24.9 190.4c28.7 6.8 45.7 22.2 52.8 47.6a84 84 0 0 1 1.8 23c0 18.6-1.1 24.2-7.2 37a65.5 65.5 0 0 1-28.3 27.8c-18.2 8.9-21.7 9.2-112.2 9.2H4546v-147.1l80.8.4c72.8.3 81.4.5 88.1 2.1zM6124 1606c0 47.8-.4 87-.8 87s-1.6-1.4-2.6-3c-9.3-15.9-33.4-33.3-57.6-41.8a138.8 138.8 0 0 0-52.5-7.7c-23.2 0-29.2.9-48.5 7.1-53.2 17.1-89.4 66.8-98 134.4-2.9 23-2.3 55.8 1.6 78.5 12.5 74.1 55 121.7 120.1 134.5 15.7 3.1 43.1 3.8 57.8 1.5 28.4-4.4 50-14.1 65.1-29 6.3-6.2 17.4-21.3 17.4-23.6 0-.5.5-.9 1-.9.6 0 1 8.3 1 23v23h71v-470h-75v87zm-72.2 95a78.6 78.6 0 0 1 42.5 22.3c15.9 15.8 25.9 37.8 30.2 66.2 1.7 11.5 2.1 40.5.6 51-6.4 45-26.4 76.8-57.3 90.9a72.1 72.1 0 0 1-36.3 7 74.6 74.6 0 0 1-37.3-7c-28.7-13.1-47.2-40.6-54.9-81.7-2.4-12.7-2.3-44.2.1-58.2 5.4-31.6 13.7-49.5 31.1-67.1a74.7 74.7 0 0 1 30.1-20.3c14.4-5.3 34.7-6.5 51.2-3.1zM5043 1641.1a159.6 159.6 0 0 0-119 73.4c-35.3 57.5-35.8 148.7-1.2 207 25.2 42.5 69.2 69.6 122.4 75.4 12.4 1.4 35.1 1.4 47.6 0 57.6-6.2 103.3-36.9 127.7-85.8 13.5-27.1 19.8-56.6 19.8-93.1-.1-43.7-9.9-79-30.7-109.9a156.4 156.4 0 0 0-95-63.5 260 260 0 0 0-71.6-3.5zm50.1 60.7c32.4 8.6 57.2 36.3 66.9 74.5a151 151 0 0 1 5.2 43.7c-.2 45.8-17.4 84.6-46.1 104a85 85 0 0 1-45.1 14.7c-60.1 3.4-101.5-46-101.4-120.7.1-30.6 7.4-58.1 21.1-78.7a91.8 91.8 0 0 1 56.9-38.8c10.9-2 32.3-1.4 42.5 1.3zm330.4-61.1c-57.8 5.2-93.6 23.8-115.4 60.1-7.2 12-14.1 35.9-14.1 48.9v3.3h74.7l1.2-6.9a57.7 57.7 0 0 1 12-25.3c15.4-17.3 47.4-25.1 83.3-20.3 33.6 4.4 50.2 20.9 48.5 48.2-1.5 23.9-17.7 33.8-63.7 38.8a1077 1077 0 0 0-63 9.1c-40.8 6.5-64.1 16.1-81.3 33.7-14 14.4-21.5 32-23.8 56.1-3.1 32.8 5.6 59.3 26 79.6 14.2 14.2 33.5 23.8 58.4 29.2a125 125 0 0 0 31.7 2.2c22.9 0 31.6-1 51.5-6a147 147 0 0 0 58.8-28.1c3.8-3 7-5.3 7.1-5.1l2.4 7.1a46.6 46.6 0 0 0 12.3 20.1c1.9 1.6 6.6 4.4 10.4 6.2 17.9 8.4 42 8.5 72.8.3l7.7-2.1v-51.5l-11.3.5c-14 .6-19.1-1.1-22.3-7.4-1.8-3.8-1.9-7.8-2.5-105.4-.5-92.2-.7-102.2-2.3-109a82.3 82.3 0 0 0-23-40.6c-24.5-24.4-63.1-36.7-113.4-36.2-10.3.1-20.5.3-22.7.5zm86.2 211c-.3 24.9-.8 34-1.9 37.8a51.5 51.5 0 0 1-15.7 24.5 56.9 56.9 0 0 1-19.1 13.8 108.2 108.2 0 0 1-65.5 9.7c-30-4.5-48.4-18.3-51-38.2-1-7.6 1.2-19.7 5.1-28.1 10-21.9 33.1-30.9 98.2-38.2 22-2.5 31.2-4.7 41.2-9.8 4.1-2.2 7.9-4 8.4-4 .4-.1.6 14.5.3 32.5zm305.3-210.2a112.6 112.6 0 0 0-53.6 29.7 92 92 0 0 0-25.4 36.4c-1.2 3.5-2.6 6.4-3.1 6.4s-.9-13.4-.9-32.5V1649h-70v340h74.9l.4-91.7c.3-81.2.6-92.8 2.1-100.3 5.3-26.9 15.2-46.9 30.5-62.1 21.7-21.4 49.2-28.1 87.9-21.4l3.2.6v-36c0-26.9-.3-36.2-1.2-36.7a223 223 0 0 0-44.8.1z"/></svg>